<?xml version="1.0"?>
<svg xmlns="http://www.w3.org/2000/svg" xmlns:xlink="http://www.w3.org/1999/xlink" viewBox="0 0 64 64" width="250" height="250"><defs><linearGradient id="New_Gradient_Swatch_2" x1="32" y1="1.498" x2="32" y2="68.318" gradientUnits="userSpaceOnUse"><stop offset="0" stop-color="#fc5c7d"/><stop offset="0.129" stop-color="#f35e85"/><stop offset="0.343" stop-color="#d9659b"/><stop offset="0.616" stop-color="#b070bf"/><stop offset="0.934" stop-color="#777ff0"/><stop offset="1" stop-color="#6a82fb"/></linearGradient><linearGradient id="New_Gradient_Swatch_2-2" x1="26" y1="1.498" x2="26" y2="68.318" xlink:href="#New_Gradient_Swatch_2"/><linearGradient id="New_Gradient_Swatch_2-3" x1="45" y1="1.498" x2="45" y2="68.318" xlink:href="#New_Gradient_Swatch_2"/><linearGradient id="New_Gradient_Swatch_2-4" x1="24" y1="1.498" x2="24" y2="68.318" xlink:href="#New_Gradient_Swatch_2"/><linearGradient id="New_Gradient_Swatch_2-5" x1="29" y1="1.498" x2="29" y2="68.318" xlink:href="#New_Gradient_Swatch_2"/></defs><title>plan-floor-planning-Blueprint-Architecture</title><g id="_001GradL" data-name="001GradL"><path d="M61,9H58V7a1,1,0,0,0-1-1H54V4.009a1,1,0,0,0-1-1l-4-.009h0a1,1,0,0,0-1,1V6H7a5.006,5.006,0,0,0-5,5V57a5.006,5.006,0,0,0,5,5h7a1,1,0,0,0,1-1V58H61a1,1,0,0,0,1-1V10A1,1,0,0,0,61,9Zm-9,3H50V10h2Zm0,2V36l-2,0V14Zm-.05,24L51,40.838l-.946-2.844ZM52,5.007V8H50V5ZM7,8H48V38a1.018,1.018,0,0,0,.051.315l2,6a1,1,0,0,0,1.9,0l2-5.991A1,1,0,0,0,54,38.009V8h2V52H7a4.948,4.948,0,0,0-3,1.026V11A3,3,0,0,1,7,8ZM60,56H6v2h7v2H7a3,3,0,0,1,0-6H57a1,1,0,0,0,1-1V11h2Z" style="fill:url(#New_Gradient_Swatch_2)"/><path d="M9,47h5V45H10V29h4V27H10V15H22V27H18v2H29v6h2V29h4V27H24V15H42V27H39v2h3V45H31V39H29v6H18v2H43a1,1,0,0,0,1-1V14a1,1,0,0,0-1-1H9a1,1,0,0,0-1,1V46A1,1,0,0,0,9,47Z" style="fill:url(#New_Gradient_Swatch_2-2)"/><rect x="32" y="60" width="26" height="2" style="fill:url(#New_Gradient_Swatch_2-3)"/><rect x="11" y="2" width="26" height="2" style="fill:url(#New_Gradient_Swatch_2-4)"/><rect x="28" y="60" width="2" height="2" style="fill:url(#New_Gradient_Swatch_2-5)"/></g></svg>
